<?xml version="1.0" encoding="UTF-8"?>
<svg version="1.1" xmlns="http://www.w3.org/2000/svg" width="96" height="96">
<path d="M0 0 C31.68 0 63.36 0 96 0 C96 31.68 96 63.36 96 96 C64.32 96 32.64 96 0 96 C0 64.32 0 32.64 0 0 Z " fill="#FDFEFD" transform="translate(0,0)"/>
<path d="M0 0 C9.13182356 -0.59212112 16.40013287 -0.50882209 24 5 C28.11725925 8.71818684 30.66271195 13.06953627 31.30078125 18.61328125 C31.33127568 25.63716505 31.10265189 31.60185746 26.1953125 36.9765625 C20.81663591 41.90870745 16.46997229 44.2714869 9.04296875 44.1953125 C7.93115234 44.18886719 6.81933594 44.18242188 5.67382812 44.17578125 C4.52333984 44.15902344 3.37285156 44.14226562 2.1875 44.125 C1.01767578 44.11597656 -0.15214844 44.10695312 -1.35742188 44.09765625 C-4.23849053 44.07413732 -7.11913989 44.04126852 -10 44 C-10 41.36 -10 38.72 -10 36 C-9.36497559 35.9906543 -8.72995117 35.98130859 -8.07568359 35.97167969 C-5.174692 35.91771267 -2.27526756 35.83411873 0.625 35.75 C1.62402344 35.73582031 2.62304688 35.72164062 3.65234375 35.70703125 C9.67525015 35.50759726 13.4772725 35.12753771 18 31 C21.10337188 26.61402067 20.62509868 21.13800624 20 16 C17.88854443 12.30495275 15.88322434 10.5843016 12 9 C9.9257375 8.71519194 7.83928561 8.51125776 5.75 8.375 C4.67234375 8.30023438 3.5946875 8.22546875 2.484375 8.1484375 C1.66453125 8.09945312 0.8446875 8.05046875 0 8 C0 5.36 0 2.72 0 0 Z " fill="#0A4F6F" transform="translate(30,26)"/>
<path d="M0 0 C3.3 0 6.6 0 10 0 C10 8.91 10 17.82 10 27 C6.7 27 3.4 27 0 27 C0 18.09 0 9.18 0 0 Z " fill="#F7C923" transform="translate(20,26)"/>
<path d="M0 0 C2.97 0 5.94 0 9 0 C9 2.97 9 5.94 9 9 C6.03 9 3.06 9 0 9 C0 6.03 0 3.06 0 0 Z " fill="#F5C722" transform="translate(67,61)"/>
<path d="M0 0 C1.60407328 -0.02708567 3.2082785 -0.04643483 4.8125 -0.0625 C5.70582031 -0.07410156 6.59914063 -0.08570312 7.51953125 -0.09765625 C10 0 10 0 13 1 C12.67 2.65 12.34 4.3 12 6 C8.04 6 4.08 6 0 6 C0 4.02 0 2.04 0 0 Z " fill="#014E71" transform="translate(31,27)"/>
<path d="M0 0 C1.32 0.33 2.64 0.66 4 1 C3.34 2.98 2.68 4.96 2 7 C7.94 7 13.88 7 20 7 C20 7.33 20 7.66 20 8 C13.4 8 6.8 8 0 8 C0 5.36 0 2.72 0 0 Z " fill="#0F4C65" transform="translate(20,62)"/>
<path d="M0 0 C8.19256018 0.19256018 8.19256018 0.19256018 11.5625 3.5625 C12.036875 4.366875 12.51125 5.17125 13 6 C12.67 6.66 12.34 7.32 12 8 C11.319375 7.401875 10.63875 6.80375 9.9375 6.1875 C6.68325166 3.76412357 3.76063775 2.4747599 0 1 C0 0.67 0 0.34 0 0 Z " fill="#DDF4F7" transform="translate(44,26)"/>
<path d="M0 0 C0.66 0.66 1.32 1.32 2 2 C-0.1875 4.0625 -0.1875 4.0625 -3 6 C-5.8125 5.75 -5.8125 5.75 -8 5 C-5.37352812 3.24901874 -2.71224618 1.61268692 0 0 Z " fill="#E8FCFE" transform="translate(53,65)"/>
</svg>
